<?xml version="1.0" encoding="utf-8"?>
<!-- Generator: Adobe Illustrator 17.0.0, SVG Export Plug-In . SVG Version: 6.00 Build 0)  -->
<!DOCTYPE svg PUBLIC "-//W3C//DTD SVG 1.1//EN" "http://www.w3.org/Graphics/SVG/1.1/DTD/svg11.dtd">
<svg version="1.1" id="Layer_1" xmlns="http://www.w3.org/2000/svg" xmlns:xlink="http://www.w3.org/1999/xlink" x="0px" y="0px"
	 width="400px" height="150px" viewBox="0 0 400 150" enable-background="new 0 0 400 150" xml:space="preserve">
<g>
	<path fill="#FFFFFF" d="M94.24,106.129l-6.012,15.439c-0.121,0.283-0.293,0.544-0.514,0.785c-0.483,0.464-1.058,0.695-1.723,0.695
		c-0.664,0-1.233-0.236-1.707-0.71c-0.473-0.473-0.709-1.042-0.709-1.706c0-0.382,0.07-0.726,0.211-1.028l16.799-43.207
		c0.121-0.363,0.333-0.695,0.635-0.997c0.463-0.463,1.027-0.695,1.692-0.695c0.665,0,1.239,0.232,1.723,0.695
		c0.282,0.302,0.483,0.634,0.603,0.997l16.799,43.207c0.141,0.302,0.212,0.646,0.212,1.028c0,0.664-0.236,1.233-0.71,1.706
		c-0.473,0.474-1.042,0.71-1.706,0.71c-0.665,0-1.229-0.231-1.693-0.695c-0.242-0.242-0.422-0.503-0.544-0.785l-6.012-15.439H94.24z
		 M109.71,101.293l-6.798-17.494l-6.798,17.494H109.71z"/>
	<path fill="#FFFFFF" d="M156.089,77.062c0-0.665,0.237-1.233,0.71-1.707c0.474-0.473,1.042-0.71,1.707-0.71
		c0.665,0,1.233,0.237,1.707,0.71c0.473,0.474,0.71,1.042,0.71,1.707v29.067c0,4.673-1.652,8.662-4.955,11.964
		c-3.304,3.304-7.293,4.955-11.965,4.955c-4.674,0-8.662-1.651-11.965-4.955c-3.304-3.302-4.954-7.292-4.954-11.964
		c0-4.674,1.651-8.662,4.954-11.965c3.304-3.304,7.292-4.955,11.965-4.955c4.673,0,8.662,1.652,11.965,4.955
		c0.04,0.04,0.08,0.08,0.12,0.12V77.062z M156.089,106.129c0-3.344-1.178-6.195-3.535-8.551c-2.357-2.357-5.207-3.536-8.551-3.536
		c-3.344,0-6.194,1.179-8.551,3.536c-2.357,2.356-3.535,5.207-3.535,8.551c0,3.344,1.178,6.194,3.535,8.551
		c2.357,2.356,5.207,3.535,8.551,3.535c3.344,0,6.194-1.179,8.551-3.535C154.911,112.322,156.089,109.472,156.089,106.129z"/>
	<path fill="#FFDD00" d="M201.441,118.214c0.665,0,1.233,0.237,1.707,0.71c0.473,0.473,0.71,1.042,0.71,1.707
		c0,0.664-0.237,1.233-0.71,1.706c-0.474,0.474-1.042,0.71-1.707,0.71c-8.057,0-12.085-4.028-12.085-12.086v-16.92h-2.418
		c-0.664,0-1.233-0.236-1.707-0.709c-0.473-0.474-0.709-1.043-0.709-1.707c0-0.665,0.236-1.234,0.709-1.707
		c0.474-0.473,1.043-0.71,1.707-0.71h2.418V77.123c0-0.665,0.236-1.233,0.71-1.707c0.473-0.473,1.042-0.71,1.707-0.71
		c0.664,0,1.233,0.237,1.706,0.71c0.474,0.474,0.71,1.042,0.71,1.707v12.085h4.865c0.665,0,1.233,0.237,1.707,0.71
		c0.473,0.473,0.71,1.042,0.71,1.707c0,0.664-0.237,1.233-0.71,1.707c-0.474,0.473-1.042,0.709-1.707,0.709h-4.865v16.92
		C194.19,115.796,196.607,118.214,201.441,118.214z"/>
	<path fill="#FFDD00" d="M233.136,114.83c0.665,0,1.233,0.237,1.707,0.709c0.473,0.474,0.71,1.043,0.71,1.707
		c0,0.665-0.232,1.239-0.695,1.723c-3.123,2.719-6.798,4.079-11.029,4.079c-4.673,0-8.661-1.651-11.964-4.955
		c-3.305-3.302-4.955-7.292-4.955-11.964c0-4.674,1.651-8.662,4.955-11.965c3.304-3.304,7.292-4.955,11.964-4.955
		c4.674,0,8.662,1.652,11.965,4.955c3.303,3.304,4.955,7.292,4.955,11.965c0,0.664-0.236,1.233-0.71,1.706
		c-0.473,0.474-1.042,0.71-1.707,0.71h-26.377c0.443,2.317,1.551,4.361,3.323,6.134c2.357,2.356,5.207,3.535,8.551,3.535
		c3.022,0,5.62-0.957,7.796-2.871C232.068,115.001,232.572,114.83,233.136,114.83z M235.705,103.711
		c-0.443-2.316-1.551-4.361-3.324-6.133c-2.356-2.357-5.207-3.536-8.551-3.536s-6.194,1.179-8.551,3.536
		c-1.772,1.772-2.88,3.817-3.323,6.133H235.705z"/>
	<path fill="#FFDD00" d="M245.584,91.626c0-0.665,0.237-1.234,0.71-1.707c0.473-0.473,1.042-0.71,1.707-0.71
		c0.665,0,1.233,0.237,1.707,0.71c0.473,0.473,0.71,1.042,0.71,1.707v1.963c3.021-2.92,6.647-4.381,10.877-4.381
		c4.33,0,8.032,1.537,11.104,4.608c3.071,3.072,4.608,6.774,4.608,11.104v15.712c0,0.664-0.237,1.233-0.71,1.706
		c-0.474,0.474-1.042,0.71-1.707,0.71c-0.664,0-1.233-0.236-1.707-0.71c-0.473-0.473-0.709-1.042-0.709-1.706V104.92
		c0-3.001-1.063-5.565-3.188-7.689c-2.125-2.126-4.688-3.188-7.689-3.188c-3.001,0-5.565,1.063-7.689,3.188
		c-2.126,2.125-3.187,4.688-3.187,7.689v15.712c0,0.664-0.237,1.233-0.71,1.706c-0.474,0.474-1.042,0.71-1.707,0.71
		c-0.665,0-1.234-0.236-1.707-0.71c-0.473-0.473-0.71-1.042-0.71-1.706V91.626z"/>
	<path fill="#FFDD00" d="M310.848,117.972c-3.384,3.384-7.413,5.076-12.085,5.076c-4.674,0-8.662-1.651-11.965-4.955
		c-3.304-3.302-4.955-7.292-4.955-11.964c0-4.674,1.652-8.662,4.955-11.965c3.304-3.304,7.292-4.955,11.965-4.955
		c4.673,0,8.661,1.652,11.965,4.955c3.302,3.304,4.955,7.292,4.955,11.965v14.503c0,0.664-0.237,1.233-0.71,1.706
		c-0.474,0.474-1.042,0.71-1.707,0.71c-0.665,0-1.235-0.236-1.707-0.71c-0.474-0.473-0.71-1.042-0.71-1.706V117.972z
		 M298.762,94.042c-3.344,0-6.194,1.179-8.551,3.536c-2.357,2.356-3.535,5.207-3.535,8.551c0,3.344,1.178,6.194,3.535,8.551
		c2.357,2.356,5.207,3.535,8.551,3.535c3.344,0,6.194-1.179,8.551-3.535c2.357-2.357,3.535-5.207,3.535-8.551
		c0-3.344-1.178-6.195-3.535-8.551C304.956,95.221,302.106,94.042,298.762,94.042z"/>
	<path fill="#231F20" d="M155.178,28.622c-0.298,0.164-0.596,0.327-0.895,0.491C154.582,28.949,154.88,28.786,155.178,28.622z"/>
	<g>
		
			<rect x="175.137" y="85.331" fill="#FFFFFF" stroke="#FFFFFF" stroke-width="0.7459" stroke-miterlimit="10" width="0.298" height="58.963"/>
	</g>
	<circle fill="#FFFFFF" cx="175.084" cy="71.954" r="4.475"/>
	<path fill="#FFFFFF" d="M192.507,65.39c-2.221,0-4.579-0.737-6.792-2.486c-4.076-3.23-6.178-4.544-10.631-4.544
		c-4.034,0-7.527,1.447-10.38,4.3c-1.02,1.02-2.672,1.02-3.692,0c-1.02-1.02-1.02-2.672,0-3.692
		c3.813-3.813,8.68-5.829,14.072-5.829c6.246,0,9.547,2.245,13.87,5.671c2.76,2.179,5.766,1.466,7.306-0.363
		c1.688-2.004,1.165-4.573-1.399-6.872c-11.745-10.537-27.67-10.564-39.625-0.066c-4.006,3.519-8.52,4.698-12.387,3.236
		c-3.353-1.267-5.737-4.405-6.223-8.19c-0.632-4.936,1.991-10.009,7.019-13.57c21.528-15.25,41.411-15.259,62.574-0.032
		c5.653,4.387,10.306,3.83,12.273,1.482c2.136-2.55,1.713-7.749-4.261-13.141c-25.589-23.094-63.682-15.28-84.3,5.205
		c-1.023,1.017-2.676,1.011-3.692-0.012c-1.015-1.023-1.01-2.676,0.012-3.692c22.302-22.161,63.619-30.521,91.479-5.378
		c8.54,7.708,8.457,15.963,4.765,20.369c-3.523,4.205-11.099,5.796-19.401-0.654c-19.284-13.873-36.71-13.856-56.43,0.111
		c-3.476,2.462-5.247,5.614-4.859,8.646c0.244,1.894,1.324,3.379,2.89,3.971c2.002,0.758,4.589-0.074,7.095-2.275
		c14.035-12.326,32.744-12.285,46.557,0.102c5.4,4.844,4.774,10.716,1.907,14.122C198.455,63.945,195.615,65.389,192.507,65.39z"/>
	<g>
		<path fill="#FFFFFF" stroke="#FFFFFF" stroke-width="0.2984" stroke-miterlimit="10" d="M135.495,135.604l2.223,7.444h0.033
			l2.123-7.444h1.195l2.122,7.444h0.034l2.223-7.444h1.129l-2.796,8.69h-1.163l-2.138-7.308h-0.034l-2.123,7.308h-1.161l-2.796-8.69
			H135.495z"/>
		<path fill="#FFFFFF" stroke="#FFFFFF" stroke-width="0.2984" stroke-miterlimit="10" d="M150.349,132.27v1.701h-1.062v-1.701
			H150.349z M150.349,135.604v8.69h-1.062v-8.69H150.349z"/>
		<path fill="#FFFFFF" stroke="#FFFFFF" stroke-width="0.2984" stroke-miterlimit="10" d="M155.569,136.497v7.797h-1.062v-7.797
			h-1.481v-0.892h1.481v-0.791c0-0.37,0.028-0.712,0.084-1.027c0.057-0.315,0.163-0.584,0.321-0.809
			c0.156-0.224,0.373-0.398,0.648-0.522c0.275-0.123,0.626-0.185,1.053-0.185c0.157,0,0.303,0.006,0.438,0.017
			c0.135,0.012,0.287,0.029,0.455,0.051v0.909c-0.146-0.022-0.281-0.041-0.405-0.058c-0.123-0.017-0.247-0.027-0.37-0.027
			c-0.292,0-0.516,0.045-0.673,0.136c-0.157,0.09-0.272,0.21-0.345,0.362c-0.073,0.152-0.115,0.329-0.127,0.53
			c-0.011,0.202-0.016,0.421-0.016,0.657v0.757h1.718v0.892H155.569z"/>
		<path fill="#FFFFFF" stroke="#FFFFFF" stroke-width="0.2984" stroke-miterlimit="10" d="M160.924,132.271v1.701h-1.062v-1.701
			H160.924z M160.924,135.605v8.689h-1.062v-8.689H160.924z"/>
	</g>
	<g>
		<path fill="#FFFFFF" stroke="#FFFFFF" stroke-width="0.2984" stroke-miterlimit="10" d="M188.019,136.952
			c0.179-0.371,0.424-0.673,0.732-0.91c0.309-0.235,0.671-0.409,1.087-0.522c0.415-0.111,0.876-0.169,1.381-0.169
			c0.381,0,0.763,0.037,1.145,0.11c0.381,0.073,0.724,0.211,1.027,0.412c0.303,0.202,0.55,0.486,0.741,0.851
			c0.191,0.365,0.286,0.839,0.286,1.423v4.615c0,0.426,0.208,0.639,0.624,0.639c0.123,0,0.235-0.023,0.336-0.068v0.893
			c-0.123,0.023-0.232,0.04-0.328,0.05c-0.096,0.011-0.217,0.017-0.362,0.017c-0.27,0-0.486-0.036-0.649-0.109
			c-0.163-0.073-0.29-0.177-0.379-0.311c-0.089-0.135-0.149-0.295-0.177-0.48c-0.028-0.185-0.042-0.391-0.042-0.615h-0.034
			c-0.19,0.281-0.384,0.53-0.581,0.749c-0.196,0.219-0.415,0.402-0.657,0.548c-0.242,0.146-0.516,0.257-0.825,0.336
			c-0.308,0.079-0.676,0.118-1.103,0.118c-0.404,0-0.783-0.047-1.137-0.144c-0.354-0.095-0.662-0.247-0.926-0.454
			c-0.264-0.208-0.472-0.471-0.623-0.791c-0.152-0.32-0.227-0.699-0.227-1.137c0-0.606,0.135-1.08,0.404-1.423
			c0.269-0.342,0.626-0.603,1.069-0.783c0.444-0.179,0.944-0.306,1.5-0.378c0.555-0.074,1.119-0.144,1.692-0.212
			c0.225-0.022,0.421-0.049,0.59-0.084c0.168-0.033,0.308-0.092,0.42-0.177c0.112-0.084,0.199-0.198,0.261-0.345
			c0.062-0.145,0.093-0.336,0.093-0.572c0-0.36-0.059-0.654-0.177-0.884c-0.117-0.23-0.281-0.413-0.488-0.548
			c-0.208-0.135-0.449-0.227-0.724-0.278c-0.275-0.049-0.57-0.075-0.885-0.075c-0.673,0-1.223,0.159-1.65,0.48
			c-0.427,0.32-0.652,0.834-0.674,1.541h-1.061C187.732,137.761,187.839,137.323,188.019,136.952z M193.324,139.545
			c-0.068,0.123-0.197,0.214-0.388,0.269c-0.191,0.057-0.36,0.097-0.506,0.118c-0.449,0.079-0.912,0.149-1.39,0.211
			c-0.477,0.062-0.912,0.154-1.304,0.278c-0.394,0.123-0.716,0.3-0.968,0.53c-0.253,0.23-0.379,0.559-0.379,0.985
			c0,0.27,0.053,0.509,0.16,0.716c0.106,0.209,0.25,0.387,0.429,0.54c0.18,0.151,0.387,0.266,0.624,0.344
			c0.235,0.079,0.477,0.118,0.724,0.118c0.404,0,0.792-0.062,1.163-0.185c0.37-0.123,0.693-0.303,0.968-0.539
			c0.274-0.236,0.493-0.522,0.657-0.859c0.162-0.337,0.244-0.718,0.244-1.145v-1.381H193.324z"/>
		<path fill="#FFFFFF" stroke="#FFFFFF" stroke-width="0.2984" stroke-miterlimit="10" d="M204.758,144.294v-1.65h-0.034
			c-0.112,0.281-0.277,0.539-0.496,0.774c-0.219,0.236-0.469,0.436-0.749,0.598c-0.281,0.162-0.581,0.29-0.901,0.379
			c-0.32,0.089-0.637,0.135-0.951,0.135c-0.663,0-1.239-0.121-1.727-0.362c-0.488-0.242-0.895-0.574-1.22-0.994
			c-0.326-0.42-0.567-0.91-0.725-1.465c-0.157-0.556-0.235-1.143-0.235-1.76c0-0.618,0.078-1.205,0.235-1.76
			c0.157-0.557,0.399-1.044,0.725-1.466c0.325-0.421,0.732-0.754,1.22-1.002c0.488-0.247,1.064-0.371,1.727-0.371
			c0.325,0,0.642,0.04,0.951,0.119c0.309,0.078,0.598,0.199,0.867,0.362c0.269,0.162,0.508,0.362,0.716,0.597
			c0.207,0.235,0.367,0.511,0.48,0.825h0.033v-4.985h1.061v12.024H204.758z M198.94,141.289c0.106,0.444,0.275,0.839,0.505,1.187
			c0.23,0.348,0.525,0.632,0.884,0.85c0.36,0.22,0.792,0.329,1.297,0.329c0.561,0,1.035-0.109,1.422-0.329
			c0.388-0.218,0.702-0.502,0.944-0.85c0.241-0.348,0.415-0.743,0.522-1.187c0.106-0.444,0.159-0.89,0.159-1.338
			c0-0.45-0.053-0.896-0.159-1.339c-0.107-0.443-0.282-0.84-0.522-1.187c-0.242-0.347-0.556-0.631-0.944-0.851
			c-0.387-0.218-0.861-0.328-1.422-0.328c-0.506,0-0.937,0.11-1.297,0.328c-0.359,0.22-0.654,0.504-0.884,0.851
			c-0.23,0.347-0.399,0.744-0.505,1.187c-0.107,0.443-0.16,0.889-0.16,1.339C198.78,140.398,198.833,140.844,198.94,141.289z"/>
		<path fill="#FFFFFF" stroke="#FFFFFF" stroke-width="0.2984" stroke-miterlimit="10" d="M209.506,135.604l2.728,7.629h0.034
			l2.695-7.629h1.095l-3.25,8.69h-1.129l-3.352-8.69H209.506z"/>
		<path fill="#FFFFFF" stroke="#FFFFFF" stroke-width="0.2984" stroke-miterlimit="10" d="M219.434,141.423
			c0.106,0.41,0.278,0.778,0.513,1.103c0.236,0.326,0.533,0.596,0.893,0.808c0.359,0.214,0.791,0.321,1.296,0.321
			c0.775,0,1.381-0.201,1.819-0.606c0.438-0.404,0.741-0.944,0.909-1.617h1.062c-0.225,0.988-0.637,1.752-1.239,2.291
			c-0.6,0.539-1.45,0.808-2.551,0.808c-0.685,0-1.277-0.121-1.776-0.362c-0.5-0.242-0.907-0.574-1.221-0.994
			c-0.314-0.42-0.548-0.91-0.699-1.465c-0.151-0.556-0.227-1.143-0.227-1.76c0-0.574,0.076-1.135,0.227-1.685
			c0.151-0.55,0.384-1.041,0.699-1.473c0.314-0.433,0.722-0.781,1.221-1.044c0.5-0.264,1.092-0.397,1.776-0.397
			c0.696,0,1.291,0.142,1.785,0.421c0.494,0.282,0.895,0.649,1.204,1.104c0.309,0.454,0.531,0.976,0.666,1.565
			c0.135,0.589,0.19,1.187,0.168,1.794h-6.685C219.274,140.618,219.328,141.013,219.434,141.423z M224.688,138.181
			c-0.129-0.371-0.311-0.699-0.547-0.986c-0.235-0.286-0.522-0.516-0.859-0.69c-0.336-0.174-0.719-0.261-1.145-0.261
			c-0.438,0-0.825,0.087-1.161,0.261c-0.337,0.174-0.623,0.404-0.859,0.69c-0.235,0.287-0.424,0.619-0.564,0.995
			c-0.14,0.376-0.233,0.761-0.278,1.153h5.624C224.887,138.939,224.817,138.552,224.688,138.181z"/>
		<path fill="#FFFFFF" stroke="#FFFFFF" stroke-width="0.2984" stroke-miterlimit="10" d="M229.918,135.604v2.038h0.033
			c0.27-0.708,0.688-1.252,1.255-1.633c0.566-0.382,1.244-0.556,2.029-0.522v1.061c-0.482-0.023-0.92,0.042-1.314,0.193
			c-0.393,0.152-0.732,0.368-1.019,0.649c-0.286,0.281-0.508,0.615-0.665,1.002c-0.157,0.386-0.235,0.811-0.235,1.271v4.631h-1.062
			v-8.69H229.918z"/>
		<path fill="#FFFFFF" stroke="#FFFFFF" stroke-width="0.2984" stroke-miterlimit="10" d="M239.246,135.604v0.892h-1.768v5.861
			c0,0.348,0.047,0.621,0.143,0.817c0.096,0.196,0.334,0.305,0.715,0.328c0.303,0,0.606-0.016,0.91-0.049v0.892
			c-0.157,0-0.314,0.005-0.472,0.016c-0.157,0.011-0.314,0.016-0.471,0.016c-0.708,0-1.202-0.137-1.482-0.412
			c-0.281-0.274-0.415-0.783-0.404-1.524v-5.945h-1.516v-0.892h1.516v-2.61h1.061v2.61H239.246z"/>
		<path fill="#FFFFFF" stroke="#FFFFFF" stroke-width="0.2984" stroke-miterlimit="10" d="M243.406,132.27v1.701h-1.061v-1.701
			H243.406z M243.406,135.604v8.69h-1.061v-8.69H243.406z"/>
		<path fill="#FFFFFF" stroke="#FFFFFF" stroke-width="0.2984" stroke-miterlimit="10" d="M251.995,137.297
			c-0.124-0.242-0.29-0.441-0.497-0.597c-0.208-0.158-0.446-0.273-0.715-0.345c-0.269-0.074-0.556-0.11-0.859-0.11
			c-0.235,0-0.474,0.026-0.715,0.075c-0.242,0.051-0.463,0.136-0.665,0.253c-0.202,0.118-0.365,0.273-0.488,0.464
			c-0.124,0.191-0.185,0.427-0.185,0.707c0,0.235,0.059,0.435,0.177,0.598c0.117,0.162,0.266,0.3,0.446,0.412
			c0.179,0.113,0.376,0.206,0.589,0.278c0.214,0.074,0.41,0.133,0.59,0.177l1.414,0.321c0.303,0.045,0.603,0.125,0.9,0.245
			c0.298,0.117,0.561,0.271,0.791,0.463c0.23,0.191,0.418,0.427,0.564,0.707c0.146,0.281,0.219,0.613,0.219,0.993
			c0,0.473-0.107,0.874-0.32,1.205c-0.214,0.331-0.486,0.6-0.817,0.808c-0.331,0.209-0.704,0.358-1.119,0.447
			c-0.415,0.089-0.825,0.135-1.229,0.135c-1.022,0-1.85-0.242-2.484-0.724c-0.634-0.483-0.996-1.258-1.087-2.325h1.062
			c0.044,0.72,0.305,1.26,0.783,1.626c0.477,0.364,1.069,0.547,1.776,0.547c0.258,0,0.524-0.028,0.8-0.084
			c0.276-0.056,0.53-0.152,0.767-0.286c0.235-0.136,0.43-0.306,0.581-0.514c0.151-0.208,0.227-0.464,0.227-0.767
			c0-0.258-0.053-0.474-0.16-0.648c-0.106-0.175-0.25-0.321-0.429-0.438c-0.18-0.118-0.385-0.216-0.615-0.295
			c-0.23-0.079-0.464-0.146-0.699-0.202l-1.364-0.302c-0.348-0.091-0.668-0.194-0.96-0.313c-0.292-0.117-0.548-0.263-0.767-0.438
			c-0.219-0.174-0.39-0.386-0.513-0.639c-0.124-0.253-0.186-0.565-0.186-0.935c0-0.438,0.099-0.814,0.295-1.129
			c0.196-0.313,0.452-0.566,0.767-0.756c0.314-0.191,0.665-0.332,1.053-0.421c0.387-0.091,0.771-0.136,1.153-0.136
			c0.438,0,0.845,0.057,1.221,0.169c0.376,0.113,0.707,0.287,0.993,0.522c0.287,0.236,0.514,0.528,0.683,0.876
			c0.169,0.348,0.263,0.759,0.286,1.229h-1.061C252.185,137.823,252.118,137.539,251.995,137.297z"/>
		<path fill="#FFFFFF" stroke="#FFFFFF" stroke-width="0.2984" stroke-miterlimit="10" d="M257.72,132.27v1.701h-1.061v-1.701
			H257.72z M257.72,135.604v8.69h-1.061v-8.69H257.72z"/>
		<path fill="#FFFFFF" stroke="#FFFFFF" stroke-width="0.2984" stroke-miterlimit="10" d="M262.351,135.604v1.499h0.033
			c0.203-0.526,0.561-0.951,1.078-1.27c0.516-0.321,1.083-0.481,1.701-0.481c0.605,0,1.114,0.079,1.523,0.236
			c0.41,0.157,0.739,0.378,0.986,0.665c0.247,0.287,0.421,0.637,0.522,1.053c0.101,0.416,0.151,0.881,0.151,1.398v5.591h-1.061
			v-5.422c0-0.371-0.034-0.716-0.101-1.036c-0.068-0.32-0.186-0.597-0.354-0.834c-0.168-0.235-0.396-0.421-0.682-0.555
			c-0.286-0.136-0.642-0.203-1.069-0.203c-0.427,0-0.806,0.075-1.137,0.227c-0.332,0.152-0.613,0.36-0.842,0.623
			c-0.23,0.264-0.41,0.579-0.54,0.944c-0.129,0.365-0.199,0.761-0.21,1.187v5.068h-1.062v-8.69H262.351z"/>
		<path fill="#FFFFFF" stroke="#FFFFFF" stroke-width="0.2984" stroke-miterlimit="10" d="M279.031,145.322
			c-0.141,0.516-0.363,0.954-0.665,1.314c-0.303,0.36-0.699,0.634-1.188,0.824c-0.488,0.191-1.085,0.287-1.793,0.287
			c-0.438,0-0.865-0.05-1.281-0.151c-0.415-0.101-0.788-0.259-1.119-0.472c-0.332-0.213-0.606-0.486-0.825-0.817
			c-0.219-0.331-0.345-0.727-0.379-1.186h1.062c0.055,0.325,0.165,0.597,0.328,0.816c0.162,0.219,0.359,0.396,0.589,0.53
			c0.23,0.135,0.486,0.232,0.767,0.295c0.281,0.061,0.566,0.093,0.859,0.093c0.988,0,1.7-0.281,2.138-0.842s0.657-1.37,0.657-2.426
			v-1.178h-0.034c-0.247,0.539-0.608,0.97-1.085,1.296c-0.478,0.326-1.036,0.488-1.675,0.488c-0.697,0-1.292-0.115-1.785-0.345
			c-0.494-0.23-0.901-0.547-1.221-0.952c-0.32-0.403-0.553-0.878-0.699-1.422c-0.146-0.545-0.219-1.125-0.219-1.743
			c0-0.594,0.087-1.158,0.261-1.692s0.427-0.999,0.758-1.398c0.331-0.399,0.741-0.713,1.229-0.944
			c0.488-0.23,1.047-0.345,1.676-0.345c0.325,0,0.631,0.045,0.917,0.136c0.287,0.089,0.548,0.216,0.783,0.378
			c0.236,0.163,0.446,0.352,0.632,0.564c0.185,0.214,0.328,0.438,0.429,0.673h0.034v-1.499h1.061v7.982
			C279.241,144.227,279.171,144.806,279.031,145.322z M276.597,143.006c0.348-0.196,0.64-0.454,0.876-0.774
			c0.235-0.321,0.413-0.689,0.53-1.104c0.118-0.415,0.177-0.842,0.177-1.28c0-0.427-0.05-0.853-0.151-1.28s-0.264-0.814-0.488-1.161
			c-0.225-0.348-0.514-0.629-0.867-0.843c-0.354-0.213-0.783-0.32-1.288-0.32c-0.506,0-0.938,0.104-1.297,0.311
			c-0.36,0.208-0.657,0.48-0.892,0.816c-0.236,0.337-0.407,0.721-0.514,1.154c-0.107,0.433-0.16,0.873-0.16,1.322
			c0,0.438,0.057,0.864,0.168,1.28c0.112,0.415,0.287,0.783,0.522,1.104c0.235,0.32,0.534,0.578,0.892,0.774
			c0.36,0.196,0.786,0.295,1.281,0.295C275.845,143.301,276.249,143.202,276.597,143.006z"/>
	</g>
</g>
</svg>
